<svg width="157" height="34" viewBox="0 0 157 34" fill="none" xmlns="http://www.w3.org/2000/svg">
<path d="M0.227368 17.2695L0.519699 15.9377L11.4659 10.4159L11.2385 13.0144L4.02767 16.7823L9.93925 19.868L9.22466 22.369L0.227368 17.2695ZM18.8845 0.639097H21.2232L14.3372 33.1203H11.9985L18.8845 0.639097Z" fill="#00FFFF"/>
<path d="M29.686 2.91278C28.2352 3.5191 27.1092 4.42857 26.308 5.6412C25.5284 6.85383 25.1387 8.31549 25.1387 10.0262C25.1387 10.8274 25.2145 11.3904 25.366 11.7152C25.5176 12.0183 25.5934 12.1916 25.5934 12.2349C24.4241 12.2349 23.5471 11.9967 22.9624 11.5203C22.3994 11.0223 22.1179 10.2102 22.1179 9.08421C22.1179 7.69835 22.6809 6.35579 23.8069 5.05654C24.9546 3.73564 26.4163 2.67459 28.1919 1.87338C29.9675 1.05053 31.7432 0.639097 33.5188 0.639097C33.822 0.639097 34.2551 0.660752 34.8181 0.704061L32.7393 10.3835H37.514L39.5928 0.704061H44.2701L39.1056 25H34.4283L37.0268 12.7871H32.2521L29.6536 25H24.9763L29.686 2.91278ZM50.4103 28.7029C49.6091 28.7029 48.9054 28.6379 48.299 28.508C47.6927 28.378 47.1622 28.0641 46.7075 27.566C46.2744 27.068 46.0578 26.2992 46.0578 25.2598C46.0578 23.809 46.4909 21.8602 47.3571 19.4132C48.2449 16.9663 49.4034 14.5086 50.8326 12.04C49.7499 12.105 48.8945 12.2674 48.2666 12.5272C47.6386 12.7871 47.2272 13.1877 47.0323 13.729C47.1189 13.729 47.2055 13.8373 47.2921 14.0538C47.4004 14.2704 47.4545 14.4977 47.4545 14.7359C47.4545 15.1257 47.2813 15.4397 46.9348 15.6779C46.5884 15.8944 46.1553 16.0027 45.6356 16.0027C45.0293 16.0027 44.542 15.8403 44.1739 15.5155C43.8058 15.1907 43.6217 14.7251 43.6217 14.1188C43.6217 13.3826 43.9032 12.7113 44.4663 12.105C45.0509 11.4986 45.8521 11.0223 46.8699 10.6758C47.8876 10.3077 49.0136 10.1236 50.2479 10.1236C50.7026 10.1236 51.2657 10.1561 51.9369 10.2211C53.7126 7.40602 55.5857 5.11068 57.5562 3.33504C59.5484 1.53774 61.4431 0.639097 63.2404 0.639097C64.2798 0.639097 65.1351 0.790676 65.8064 1.09383L60.7069 25H56.0296L58.5306 13.2093C57.7294 12.8412 56.9932 12.5705 56.3219 12.3973C55.6506 12.2241 54.936 12.105 54.1781 12.04C52.9439 14.7035 51.9261 17.4319 51.1249 20.2253C50.3454 22.997 49.9556 25.2165 49.9556 26.8839C49.9556 27.7068 50.1072 28.3131 50.4103 28.7029ZM60.7069 2.94526C59.7757 3.44331 58.8013 4.37444 57.7835 5.73865C56.7875 7.0812 55.813 8.71609 54.8602 10.6433C56.4193 10.9465 57.7402 11.3254 58.8229 11.7802L60.7069 2.94526ZM72.9837 25.5847C71.6195 25.5847 70.4177 25.3465 69.3783 24.8701C68.3389 24.3937 67.5377 23.7332 66.9747 22.8887C66.4117 22.0226 66.1302 21.0265 66.1302 19.9005C66.1302 18.9477 66.3251 18.0815 66.7149 17.302C67.1263 16.5224 67.6676 15.9053 68.3389 15.4505C69.0319 14.9958 69.7898 14.7684 70.6126 14.7684C71.3705 14.7684 72.0093 14.9633 72.529 15.3531C73.0487 15.7212 73.3735 16.2409 73.5034 16.9122C72.3774 16.9122 71.4788 17.2153 70.8075 17.8217C70.1362 18.4063 69.8006 19.2075 69.8006 20.2253C69.8006 21.1564 70.0821 21.9035 70.6451 22.4665C71.2081 23.0295 71.9552 23.311 72.8863 23.311C74.034 23.311 74.9759 22.932 75.7122 22.1741C76.4701 21.3946 76.849 20.4202 76.849 19.2508C76.849 18.2331 76.5675 17.2695 76.0045 16.36C75.4415 15.4505 74.597 14.3462 73.471 13.0469C72.3016 11.7044 71.4138 10.5567 70.8075 9.60391C70.2228 8.62947 69.9305 7.56842 69.9305 6.42075C69.9305 5.29474 70.2445 4.28782 70.8725 3.4C71.5004 2.49053 72.3666 1.77594 73.471 1.25624C74.5753 0.736541 75.8204 0.476691 77.2063 0.476691C78.9603 0.476691 80.357 0.88812 81.3964 1.71098C82.4574 2.53384 82.9879 3.6382 82.9879 5.02406C82.9879 5.93353 82.7606 6.66977 82.3058 7.23278C81.8511 7.79579 81.2556 8.07729 80.5194 8.07729C79.6965 8.07729 79.0361 7.74165 78.538 7.07038C78.9494 6.76722 79.2743 6.36662 79.5125 5.86857C79.7507 5.37053 79.8698 4.85083 79.8698 4.30947C79.8698 3.61654 79.664 3.06436 79.2526 2.65293C78.8412 2.2415 78.2782 2.03579 77.5636 2.03579C76.6974 2.03579 75.9828 2.34977 75.4198 2.97774C74.8785 3.58406 74.6078 4.36361 74.6078 5.31639C74.6078 6.18256 74.8568 6.99459 75.3549 7.75248C75.8529 8.48872 76.6325 9.4415 77.6935 10.6108C78.5597 11.542 79.2526 12.3432 79.7723 13.0144C80.3137 13.6857 80.7684 14.4653 81.1365 15.3531C81.5263 16.2192 81.7212 17.1612 81.7212 18.1789C81.7212 19.5648 81.3314 20.8208 80.5519 21.9468C79.794 23.0728 78.7437 23.9606 77.4012 24.6102C76.0803 25.2598 74.6078 25.5847 72.9837 25.5847ZM91.5082 25.5847C90.144 25.5847 88.9422 25.3465 87.9028 24.8701C86.8634 24.3937 86.0622 23.7332 85.4991 22.8887C84.9361 22.0226 84.6546 21.0265 84.6546 19.9005C84.6546 18.9477 84.8495 18.0815 85.2393 17.302C85.6507 16.5224 86.1921 15.9053 86.8634 15.4505C87.5563 14.9958 88.3142 14.7684 89.137 14.7684C89.8949 14.7684 90.5337 14.9633 91.0534 15.3531C91.5731 15.7212 91.8979 16.2409 92.0279 16.9122C90.9019 16.9122 90.0032 17.2153 89.3319 17.8217C88.6607 18.4063 88.325 19.2075 88.325 20.2253C88.325 21.1564 88.6065 21.9035 89.1695 22.4665C89.7325 23.0295 90.4796 23.311 91.4107 23.311C92.5584 23.311 93.5004 22.932 94.2366 22.1741C94.9945 21.3946 95.3734 20.4202 95.3734 19.2508C95.3734 18.2331 95.0919 17.2695 94.5289 16.36C93.9659 15.4505 93.1214 14.3462 91.9954 13.0469C90.8261 11.7044 89.9382 10.5567 89.3319 9.60391C88.7473 8.62947 88.4549 7.56842 88.4549 6.42075C88.4549 5.29474 88.7689 4.28782 89.3969 3.4C90.0249 2.49053 90.891 1.77594 91.9954 1.25624C93.0998 0.736541 94.3449 0.476691 95.7307 0.476691C97.4847 0.476691 98.8814 0.88812 99.9208 1.71098C100.982 2.53384 101.512 3.6382 101.512 5.02406C101.512 5.93353 101.285 6.66977 100.83 7.23278C100.376 7.79579 99.7801 8.07729 99.0438 8.07729C98.221 8.07729 97.5605 7.74165 97.0625 7.07038C97.4739 6.76722 97.7987 6.36662 98.0369 5.86857C98.2751 5.37053 98.3942 4.85083 98.3942 4.30947C98.3942 3.61654 98.1885 3.06436 97.777 2.65293C97.3656 2.2415 96.8026 2.03579 96.088 2.03579C95.2219 2.03579 94.5073 2.34977 93.9443 2.97774C93.4029 3.58406 93.1322 4.36361 93.1322 5.31639C93.1322 6.18256 93.3813 6.99459 93.8793 7.75248C94.3773 8.48872 95.1569 9.4415 96.2179 10.6108C97.0841 11.542 97.777 12.3432 98.2967 13.0144C98.8381 13.6857 99.2928 14.4653 99.661 15.3531C100.051 16.2192 100.246 17.1612 100.246 18.1789C100.246 19.5648 99.8558 20.8208 99.0763 21.9468C98.3184 23.0728 97.2682 23.9606 95.9256 24.6102C94.6047 25.2598 93.1322 25.5847 91.5082 25.5847ZM109.156 28.7029C108.354 28.7029 107.651 28.6379 107.044 28.508C106.438 28.378 105.907 28.0641 105.453 27.566C105.02 27.068 104.803 26.2992 104.803 25.2598C104.803 23.809 105.236 21.8602 106.102 19.4132C106.99 16.9663 108.149 14.5086 109.578 12.04C108.495 12.105 107.64 12.2674 107.012 12.5272C106.384 12.7871 105.972 13.1877 105.778 13.729C105.864 13.729 105.951 13.8373 106.037 14.0538C106.146 14.2704 106.2 14.4977 106.2 14.7359C106.2 15.1257 106.027 15.4397 105.68 15.6779C105.334 15.8944 104.901 16.0027 104.381 16.0027C103.775 16.0027 103.287 15.8403 102.919 15.5155C102.551 15.1907 102.367 14.7251 102.367 14.1188C102.367 13.3826 102.649 12.7113 103.212 12.105C103.796 11.4986 104.597 11.0223 105.615 10.6758C106.633 10.3077 107.759 10.1236 108.993 10.1236C109.448 10.1236 110.011 10.1561 110.682 10.2211C112.458 7.40602 114.331 5.11068 116.301 3.33504C118.294 1.53774 120.188 0.639097 121.986 0.639097C123.025 0.639097 123.88 0.790676 124.552 1.09383L119.452 25H114.775L117.276 13.2093C116.475 12.8412 115.738 12.5705 115.067 12.3973C114.396 12.2241 113.681 12.105 112.923 12.04C111.689 14.7035 110.671 17.4319 109.87 20.2253C109.091 22.997 108.701 25.2165 108.701 26.8839C108.701 27.7068 108.852 28.3131 109.156 28.7029ZM119.452 2.94526C118.521 3.44331 117.547 4.37444 116.529 5.73865C115.533 7.0812 114.558 8.71609 113.606 10.6433C115.165 10.9465 116.486 11.3254 117.568 11.7802L119.452 2.94526ZM131.664 2.75038C130.192 3.27008 129.066 4.09293 128.286 5.21895C127.528 6.32331 127.149 7.66586 127.149 9.24662C127.149 9.93955 127.225 10.5783 127.377 11.163C127.528 11.726 127.745 12.1916 128.026 12.5597C126.64 12.5597 125.612 12.2782 124.94 11.7152C124.291 11.1305 123.966 10.2427 123.966 9.05173C123.966 7.53594 124.41 6.12842 125.298 4.82917C126.186 3.50827 127.387 2.45804 128.903 1.6785C130.419 0.898948 132.065 0.509174 133.84 0.509174C134.338 0.509174 134.771 0.541655 135.14 0.606616C135.508 0.671579 135.93 0.790677 136.406 0.963911L140.304 18.3414L143.942 0.704061H147.093L141.798 25H137.316L133.548 8.88932L129.845 25H126.759L131.664 2.75038Z" fill="white"/>
<path d="M145.922 19.7705L153.133 16.0027L147.222 12.917L147.936 10.4159L156.933 15.5155L156.641 16.8472L145.695 22.369L145.922 19.7705Z" fill="#00F0FF"/>
</svg>
